<svg width="132.98" height="281.9" version="1.1" viewBox="0 0 132.98 281.9" xmlns="http://www.w3.org/2000/svg">
 <g>
  <path d="m8.5777 40.346c1.5347-10.808 5.2136-20.444 12.875-27 9.0953-7.7835 29.431-13.486 44.906-13.344 15.756.14434 32.322 3.8624 44.906 13.344 5.939 4.4745 11.49 17.471 13.125 27 2.184 12.731-.0105 31.325-.5 44.594-.3451 9.3545-.5 23.25-.5 23.25s3.4147.86024 5.8024 3.4518c3.1137 3.3794 4.9128 9.0398 3.0101 11.423-1.9236 2.4097-8.5625-3.8125-8.5625-3.8125l.8125 64.5s2.6941 4.0592 3.3125 6.4688c3.0302 11.808 2.0504 30.344 1.3125 44.156-.59099 11.062-5.8501 22.065-12.312 31.562-2.8122 4.1328-6.56 7.9533-11.062 10.125-11.115 5.3612-28.645 5.8125-36.562 5.8125-8.9143 0-18.098-1.1825-26.938-3.0625-6.842-1.4552-13.385-3.4785-18.25-8.3125-5.9958-5.9574-13.806-28.171-15.937-36.125-2.1312-7.9536-1.173-37.268.125-44.156.81581-4.3296 3.625-6.4688 3.625-6.4688l-1.4731-65s-6.5806 6.3372-9.1459 4.1417c-3.0467-2.6074.66865-8.4677 3.1642-11.607 1.3859-1.7432 5.9817-3.165 5.9817-3.165s.4887-17.512-.4258-26.198c-.42285-4.0161-2.2813-7.8507-2.3303-11.889-.10141-8.361-.42161-19.385 1.0417-29.69z" fill="#daa437"/>
  <path d="m102.96 23.167c-.85325 1.8485-.46373 4.2269.7955 6.8501s4.857 6.3975 7.4246 7.513 4.7442 1.2658 6.2314.17678 1.6094-1.8639 1.3258-4.6404-3.2694-8.536-5.5243-10.562-3.9132-2.5054-5.8336-2.2981-3.5662 1.1125-4.4194 2.961z" fill="#000000"/>
  <path d="m30.783 23.167c.85325 1.8485.46373 4.2269-.7955 6.8501s-4.857 6.3975-7.4246 7.513-4.7442 1.2658-6.2314.17678-1.6094-1.8639-1.3258-4.6404 3.2694-8.536 5.5243-10.562 3.9132-2.5054 5.8336-2.2981 3.5662 1.1125 4.4194 2.961z" fill="#000000"/>
  <path d="m116.27 100.64-8.3085 30.759-3.0052 103.59 5.6569-16.794 5.3033-31.113 1.7678-51.972z" fill="#000000"/>
  <path d="m17.367 100.64 8.3085 30.759 3.0052 103.59-5.6569-16.794-5.3033-31.113-1.7678-51.972z" fill="#000000"/>
  <rect x="60.491" y="1.2296e-6" width="12" height="281.9" fill="#e6e6e6"/>
  <path d="m34.242 199.1c.57416 9.186 2.7783 29.685 4.2426 39.952 5.3572 2.0083 18.256 4.6842 30.879 4.647 12.623-.0373 24.971-2.7876 29.225-4.3818 1.5357-3.756 2.1677-29.663 2.2097-41.277-.21112-.75557-.53512-1.488-1.3258-1.9445-2.5474 0-14.665.72314-29.999.62859-15.334-.0946-31.338-1.0068-32.58-.36343-1.1692.49848-1.9442 1.1996-2.6516 2.74z" fill="#000000"/>
  <path d="m28.292 126.83s-4.5462-17.056-8.1875-31.313c6.6039-15.48 28.586-23.769 45.828-24 18.181-.24407 41.535 7.1168 48.984 24-2.4436 14.386-9.5 30.563-9.5 30.563s-26.219-5.17-39.484-5c-12.691.16263-37.641 5.75-37.641 5.75z" fill="#000000"/>
 </g>
</svg>
