<svg width="132" height="282" version="1.1" viewBox="0 0 132 282" xmlns="http://www.w3.org/2000/svg">
 <g stroke-linecap="round" stroke-linejoin="round" stroke-width="10">
  <path d="m65.922.0090453c-7.4117-.11335-16.952.8209-24.777 3.7939-8.6435 3.2841-15.298 6.0739-23.375 15.09l-3.114-.17945-2.4547 8.1698c-.94055 1.5687-2.125 4.3682-2.7635 6.4735-.70937 2.339-2.0109 9.4161-2.2794 13.66-.2685 4.2438-.68654 9.04-.79041 13.57-.10952 4.7756.05109 9.5552.17524 14.331.086072 3.3124.26342 7.8961.3958 9.9328.10468 1.6105.31508 3.5793.50429 4.6645.15651.8976.489 1.8773 1.0086 2.6784.51958.80109 2.5107 1.295 2.5107 1.295v7.6557l-.19909.16853v3.6242l.09895-.0485v87.614s-2.6472 5.3029-3.263 7.9492c-1.1621 4.9938-1.6819 14.402-1.7322 16.953-.055058 2.7937-.035769 23.654.12399 25.923.10836 3.0215.94255 6.0371 1.5629 6.7597.62042.72256 4.3622 2.7535 4.9726 3.4192.61038.66575 3.4076 4.1071 3.6862 4.6475.27866.54044-.06545 3.1698.34216 3.6339.40759.46405 2.7415.42669 3.1247 1.0731l.08346 19.139h92.317l.0834-19.139c.38319-.64638 2.7195-.60902 3.1271-1.0731.40761-.46405.0623-3.0934.34095-3.6339.27865-.54041 3.077-3.9818 3.6874-4.6475.61037-.66574 4.3498-2.6967 4.9702-3.4192.62041-.72256 1.4558-3.7382 1.5641-6.7597.15979-2.2697.17908-23.13.124-25.923-.0503-2.5516-.57129-11.959-1.7334-16.953-.61582-2.6462-3.2618-7.9492-3.2618-7.9492v-78.256h-.005v-13.022l-.0942-.08v-7.6557s1.99-.49386 2.5095-1.295c.51959-.80109.85207-1.7808 1.0086-2.6784.18922-1.0852.40082-3.054.50549-4.6645.13239-2.0367.30854-6.6204.39461-9.9328.12408-4.7753.28477-9.5549.17525-14.331-.10389-4.5303-.52191-9.3264-.7904-13.57-.2685-4.2439-1.5701-11.321-2.2794-13.66-.63849-2.1053-1.8229-4.9048-2.7635-6.4735l-2.4547-8.1698-3.114.17945c-8.0766-9.0157-14.731-11.805-23.375-15.09-7.8249-2.973-17.367-3.9073-24.778-3.7939zm-45.293 262.24c.57179.0106 2.9018 1.4408 2.8135 1.7715-.09577.35863-2.7158.18427-2.897 0-.18119-.18428-.28584-1.4723-.02149-1.7412.02063-.021.05646-.0312.10492-.0303zm90.325 0c.0485-.00062.0843.009.10492.0303.26437.26888.15853 1.5569-.0226 1.7412-.18119.18428-2.8012.35863-2.897 0-.0883-.33062 2.2429-1.7608 2.8147-1.7715z" fill="#ff0000"/>
  <path d="m17.707 85.239c.15672-.75961 8.7083-28.593 47.607-28.593 38.899 0 47.673 27.671 47.673 28.57 0 .89939-10.326 32.032-12.167 33.334-.92018.65086-18.313-3.158-35.714-3.1493-17.401.009-34.811 3.8349-35.766 3.1493-1.9096-1.3712-11.79-32.552-11.633-33.311z" fill="#000000"/>
  <path d="m16.399 93.803c-2.2049.73246-.24573 31.767 0 50.001s6.4525 41.988 8.6904 40.783c2.2378-1.2051 5.1355-34.009 3.4762-49.369s-9.9616-42.147-12.167-41.415z" fill="#000000"/>
  <path d="m113.93 93.803c2.2049.73246.24573 31.767 0 50.001s-6.4526 41.988-8.6904 40.783c-2.2378-1.2051-5.1355-34.009-3.4762-49.369 1.6593-15.361 9.9616-42.147 12.167-41.415z" fill="#000000"/>
  <path d="m32.042 181.68c-1.5611 1.5878-3.4054 25.719-2.9796 28.915.42581 3.1954 10.285 29.553 12.539 32.197 1.1272 1.3222 13.139 4.7313 24.868 4.4008 11.73-.33053 22.125-3.4959 23.177-4.4008s11.414-30 11.67-32.324c.25547-2.3232-2.3567-27.776-3.7245-29.167s-63.989-1.209-65.55.3788z" fill="#000000"/>
  <path d="m14.661 47.464c.7187.73095 4.4168-3.6082 5.2142-4.4192.79743-.81102 3.3593-12.47 4.5314-14.394 1.1721-1.9241 6.2833-5.6161 6.704-6.6289.42072-1.0128.51864-5.912 0-6.4395-.51864-.52748-4.3065.94987-6.2695 2.5884-1.963 1.6386-3.5528 4.8078-5.4625 9.6592-1.9098 4.8514-5.4363 18.903-4.7176 19.634z" fill="#ffffff"/>
  <path d="m116.78 47.464c-.71871.73095-4.4168-3.6082-5.2142-4.4192-.79742-.81102-3.3593-12.47-4.5314-14.394-1.1721-1.9241-6.2833-5.6161-6.704-6.6289-.42072-1.0128-.51864-5.912 0-6.4395.51865-.52748 4.3065.94987 6.2695 2.5884 1.963 1.6386 3.5528 4.8078 5.4625 9.6592 1.9098 4.8514 5.4363 18.903 4.7176 19.634z" fill="#ffffff"/>
  <path d="m13.708 99.672-5.7178 3.9936s-.7322-.81612-2.1698-.24493c-.78994.31387-3.1522 1.8703-4.3324 3.9831-1.3752 2.4618-1.7437 5.1402-1.3257 5.5254.41802.38516 8.6092-3.966 8.902-4.4862.29279-.52022-.065569-2.6348-.065569-2.6348l4.7092-1.52s-.01489-4.5404 0-4.616z" fill="#000000"/>
  <path d="m118.29 99.672 5.7178 3.9936s.7322-.81612 2.1698-.24493c.78993.31387 3.1522 1.8703 4.3324 3.9831 1.3752 2.4618 1.7437 5.1402 1.3257 5.5254-.41802.38516-8.6092-3.966-8.902-4.4862-.29279-.52022.0656-2.6348.0656-2.6348l-4.7092-1.52s.0149-4.5404 0-4.616z" fill="#000000"/>
  <path d="m23.352 247.72c-.05866 1.239 19.212 5.8524 19.926 4.9243s-7.5627-8.1649-9.0628-8.4597-10.804 2.2964-10.863 3.5354z" fill="#000000"/>
  <path d="m107.57 247.72c.0587 1.239-19.212 5.8524-19.926 4.9243s7.5627-8.1649 9.0628-8.4597 10.804 2.2964 10.863 3.5354z" fill="#000000"/>
  <path d="m117.19 18.713-3.1133.17969c1.9664 2.265 3.7608 4.7751 5.543 7.9062l-2.4297-8.0859z" fill="#000000"/>
  <path d="m14.656 18.713-2.4238 8.0625c1.7779-3.1206 3.5695-5.6232 5.5312-7.8828l-3.1074-.17969z" fill="#000000"/>
  <path d="m111.21 262.98c.00637.44162-.0629.92821-.16992 1.0371-.18119.18428-2.8026.35863-2.8984 0-.0267-.09996.19789-.30769.49805-.53906l-.64649.14649h-84.852c.19377.16748.32553.3145.30469.39257-.09577.35863-2.7172.18427-2.8984 0-.082792-.0842-.13918-.425-.16211-.76757h-.70117l.082031 18.746h92.316l.08398-19.016h-.95703z"/>
 </g>
</svg>
