<svg width="116.59" height="256.3" version="1.1" viewBox="0 0 116.59 256.3" xmlns="http://www.w3.org/2000/svg">
 <g stroke-linecap="round" stroke-linejoin="round" stroke-width="10">
  <path d="m57.998 0s-20.563 1.2397-30.947 7.3145c-10.384 6.0748-26.932 30.418-26.932 30.418v28.621s2.9561 8.9646 3.6348 12.463c.67863 3.4982 1.0117 8.2383 1.0117 8.2383l.31836 22.602s.83684 40.456.52734 43.514-4.7109 19.994-5.0703 23.342c0 0-.40746 31.96 0 33.48.40746 1.5207 6.4612 7.4984 9.084 11.406 2.6228 3.9078 6.6543 12.041 6.6543 12.041h-7.9219l-.21094-.8457-1.1621-.10547v22.602h1.1621v-3.4844s14.399 2.9931 22.707 3.75c8.3085.75691 27.145.94921 27.145.94921s18.834-.1923 27.143-.94921c8.3085-.75692 22.707-3.75 22.707-3.75v3.4844h1.1621v-22.602l-1.1621.10547-.21093.8457h-7.9199s4.0295-8.1332 6.6523-12.041c2.6228-3.9078 8.6765-9.8856 9.084-11.406.40746-1.5206 0-33.48 0-33.48-.35936-3.3478-4.7608-20.284-5.0703-23.342-.3095-3.0579.5293-43.514.5293-43.514l.3164-22.602s.33505-4.74 1.0137-8.2383c.67863-3.4982 3.6328-12.463 3.6328-12.463v-28.621s-16.548-24.343-26.932-30.418c-10.384-6.0748-30.945-7.3145-30.945-7.3145z" fill="#673ab7"/>
  <path d="m14.166 105.7v4.119l-3.8022 1.6899s.22901 1.7777-.31685 2.3236c-.54586.54586-5.2999 3.6413-7.0763 3.855s-1.8968.31421-2.5876-.68651c-.6908-1.0007-.39594-3.1859.47527-4.5943.87121-1.4085 3.3923-2.5976 4.4887-2.8516s1.4258.15843 1.4258.15843z" fill="#6df400"/>
  <path d="m102.43 105.7v4.119l3.8022 1.6899s-.22901 1.7777.31685 2.3236 5.2999 3.6413 7.0763 3.855c1.7764.21374 1.8968.31421 2.5876-.68651s.39594-3.1859-.47528-4.5943c-.87121-1.4085-3.3923-2.5976-4.4887-2.8516-1.0964-.254-1.4258.15843-1.4258.15843z" fill="#6df400"/>
  <path d="m12.793 31.711c-1.3387-.77292 2.9622-8.8124 6.5482-12.674s14.019-10.413 14.786-9.083-5.2664 8.3086-8.8718 11.935-11.124 10.595-12.463 9.8223z" fill="#000000"/>
  <path d="m104.07 31.711c1.3387-.77292-2.9622-8.8124-6.5482-12.674-3.586-3.8616-14.019-10.413-14.786-9.083s5.2664 8.3086 8.8718 11.935 11.124 10.595 12.463 9.8223z" fill="#000000"/>
  <path d="m17.863 94.131c2.5172-3.631 26.259-10.443 40.134-10.456 13.876-.01327 38.451 6.715 40.451 10.456 1.5549 2.9079-4.3106 33.911-6.0201 35.276s-22.713-7.0877-34.22-7.0763c-11.506.0114-31.891 8.0182-33.375 6.9707s-9.4879-31.539-6.9707-35.17z" fill="#000000"/>
  <path d="m14.588 101.84c-1.3737.59075.5814 50.277 1.1618 58.512s4.1855 23.01 5.7033 21.968 1.2629-42.944 0-51.647-5.4914-29.424-6.8651-28.833z" fill="#000000"/>
  <path d="m101.97 101.84c1.3737.59075-.5814 50.277-1.1618 58.512-.58038 8.2347-4.1855 23.01-5.7033 21.968s-1.2629-42.944 0-51.647 5.4914-29.424 6.8651-28.833z" fill="#000000"/>
  <path d="m32.438 189.82h51.33c3.4619 0 5.5977 2.9691 5.5977 6.9707s-10.175 29.459-11.723 31.157-1.9025 2.6404-3.9078 2.6404h-28.411c-2.7982 0-3.9714-.88988-5.3864-2.3236s-12.463-28.132-12.463-31.157 1.9812-7.2875 4.964-7.2875z" fill="#000000"/>
  <path d="m34.814 61.39-5.0168 12.727v2.0595l3.4853 9.7695 4.7527-.73932.05281-20.278z" fill="#000000"/>
  <path d="m81.549 61.39 5.0168 12.727v2.0595l-3.4853 9.7695-4.7527-.73932-.05281-20.278z" fill="#000000"/>
  <path d="m6.9839 232.49v22.602h1.1621v-3.4844s14.399 2.9931 22.707 3.75c8.3085.7569 27.145.94921 27.145.94921s18.834-.19231 27.143-.94921c8.3085-.75692 22.707-3.75 22.707-3.75v3.4844h1.1621v-22.602l-1.1621.10547-.21093.8457h-99.279l-.21094-.8457z" fill="#6df400"/>
  <path d="m56.143 8.7959v-2.2405l2.2031-2.2031 2.2031 2.2031v2.1658l-2.3745-1.3709z" fill="#aeea0e"/>
  <rect x="46.59" y="21.467" width="9.928" height="56.188" fill="#aeea0e"/>
  <rect x="61.588" y="21.467" width="9.928" height="56.188" fill="#aeea0e"/>
  <rect x="61.588" y="128.56" width="9.928" height="56.188" fill="#aeea0e"/>
  <rect x="45.745" y="128.56" width="9.928" height="56.188" fill="#aeea0e"/>
 </g>
</svg>
