<svg width="602.29" height="602.12" version="1.1" viewBox="0 0 602.29 602.12" xmlns="http://www.w3.org/2000/svg">
 <g>
  <path d="m391.77 0-45.477 63.779a241.95 241.95 0 00-44.68-4.2109 241.95 241.95 0 00-47.686 5.3457l-47.094-64.045-54.947 23.48 13.201 77.908a241.95 241.95 0 00-64.535 65.141l-78.301-11.945-22.252 55.457 64.4 45.736a241.95 241.95 0 00-4.7324 44.867 241.95 241.95 0 005.166 46.859l-63.795 46.908 23.48 54.947 77.174-13.076a241.95 241.95 0 0065.729 65.363l-11.797 77.348 55.455 22.252 45.105-63.512a241.95 241.95 0 0045.428 4.8555 241.95 241.95 0 0047.561-5.3184l46.277 62.936 54.947-23.48-12.934-76.322a241.95 241.95 0 0065.838-66.486l76.732 11.705 22.25-55.457-63.381-45.014a241.95 241.95 0 004.6543-44.508 241.95 241.95 0 00-4.998-48.756l62.686-46.094-23.479-54.947-76.666 12.99a241.95 241.95 0 00-65.883-64.877l11.965-77.477zm-92.35 199.44a103.61 103.61 0 01103.61 103.61 103.61 103.61 0 01-103.61 103.61 103.61 103.61 0 01-103.61-103.61 103.61 103.61 0 01103.61-103.61z" fill="#f44336"/>
 </g>
</svg>
