<svg width="158.03" height="65.848" version="1.1" viewBox="0 0 158.03 65.848" xmlns="http://www.w3.org/2000/svg">
 <path d="m108.53 10.973c-7.3289-.06585-15.043.72635-23.205.92969-15.891.3959-48.904 13.962-49.721 14.299v19.787l.21484-.125s35.411 15.735 50.734 15.354c17.82-.44397 30.153-2.6066 43.811-8.502 4.6879-2.0235 8.0463-6.4638 12.51-8.9434 4.802-2.6676 15.164-6.2773 15.164-6.2773l-8.6055-1.7988 8.3613-2.2207s-10.827-1.0146-15.268-3.6484c-5.671-3.3633-7.1707-11.746-13.098-14.635-6.626-3.2293-13.57-4.1529-20.898-4.2188zm16.85 9.0664a4.746 4.746 0 014.8594 4.627 4.746 4.746 0 01-4.623 4.8633 4.746 4.746 0 01-4.8633-4.627 4.746 4.746 0 014.627-4.8633z" fill="#3e59a2"/>
 <path d="m0 0s20.917 19.503 21.238 32.416c.32172 12.913-19.598 33.432-19.598 33.432l33.961-19.859v-19.789c-.01035.0043-.27539.10938-.27539.10938z" fill="#d40000"/>
</svg>
